<!-- Generator: Adobe Illustrator 17.1.0, SVG Export Plug-In  --><svg version="1.1"	 xmlns="http://www.w3.org/2000/svg" xmlns:xlink="http://www.w3.org/1999/xlink" xmlns:a="http://ns.adobe.com/AdobeSVGViewerExtensions/3.0/"	 x="0px" y="0px" width="72.03px" height="102.243px" viewBox="0 0 72.03 102.243" enable-background="new 0 0 72.03 102.243"	 xml:space="preserve"><defs></defs><g>	<polygon points="33.989,100.439 35.559,100.439 36.46,98.197 35.851,97.679 34.257,97.967 	"/>	<g>		<path fill="none" d="M37.08,86.955h-2.131v8.709c1.38-1.491,2.131-3.846,2.131-6.812V86.955z"/>		<path fill="none" d="M34.949,68.889v3.743h1.827C36.475,71.267,35.92,70.1,34.949,68.889z"/>		<path fill="none" d="M39.846,88.852c0,0.82-0.045,1.589-0.133,2.317l2.252-4.215h-2.119V88.852z"/>		<path fill="none" d="M54.986,52.285V46.77c0-3.265-0.558-3.712-5.315-3.826v13.054C53.988,55.998,54.986,55.322,54.986,52.285z"/>		<path fill="none" d="M22.802,52.285V46.77c0-3.265-0.554-3.712-5.314-3.826v13.054C21.806,55.998,22.802,55.322,22.802,52.285z"/>		<path fill="none" d="M2.766,29.668v70.099h19.373c4.249,0,7.315-0.6,10.046-2.107V86.955h-6.789h-0.973			c-1.091,1.538-2.984,2.236-5.829,2.236c-0.885,0-2.435-0.113-3.872-0.226v-2.011H6.456l8.266-16.625v-0.942l0.476-0.015			l5.519-11.102c-0.849,0.113-2.099,0.142-4.557,0.2h-1.437V40.359c6.087,0.223,6.751,0.223,8.08,0.786			c1.77,0.899,2.769,2.813,2.769,5.625v1.739l6.614-13.307v-3.41c-2.144-1.397-4.963-2.125-8.388-2.125H2.766z"/>		<path fill="none" d="M53.857,72.633c-0.679-0.608-1.684-0.884-3.078-0.884h-1.108v0.884h0.189H53.857z"/>		<path fill="none" d="M34.949,99.014v0.752h0.169l0.733-1.369C35.567,98.612,35.267,98.817,34.949,99.014z"/>		<path fill="none" d="M69.264,42.27c0-8.104-4.759-12.603-13.284-12.603h-2.852l-5.192,10.729c5.137,0.187,5.8,0.22,7.052,0.749			c1.768,0.899,2.767,2.813,2.767,5.625v5.515c0,2.7-0.999,4.498-2.988,5.4c-1.44,0.675-1.773,0.675-6.421,0.786h-1.439V42.522			L35.651,65.769c2.312,2.223,3.465,4.215,3.932,6.863h7.321v-3.245l3.764-0.114c3.335,0,5.469,1.11,6.45,3.359h7.21l-3.613,7.16			l0,0l-0.03,0.058L50.632,99.766h3.689c5.202,0,8.635-0.899,11.844-3.263c1.993-1.349,3.099-4.05,3.099-7.651V76.138			c0-5.516-1.328-7.43-8.415-12.829c6.424-3.148,8.415-5.737,8.415-11.024V42.27z"/>		<path d="M37.08,42.27c0-3.172-0.731-5.788-2.131-7.802v24.536c1.548-1.795,2.131-3.864,2.131-6.72V42.27z"/>		<polygon fill="#ED1C24" points="49.86,72.633 49.671,72.633 49.671,72.985 		"/>		<g>			<path fill="#FFFFFF" d="M18.483,69.273l-3.286,0.1l-0.476,0.015v0.942v16.625v2.011c1.437,0.112,2.987,0.226,3.872,0.226				c2.845,0,4.738-0.698,5.829-2.236c0.475-0.671,0.795-1.506,0.973-2.514c0.11-0.636,0.175-1.335,0.175-2.115v-6.188				c0-0.711-0.064-1.359-0.175-1.958C24.785,70.89,22.512,69.273,18.483,69.273z M22.802,82.326c0,3.264-0.996,4.388-3.985,4.388				h-1.329V71.749h1.106c2.989,0,4.208,1.239,4.208,4.39V82.326z"/>			<path fill="#FFFFFF" d="M14.722,40.359v18.112h1.437c2.458-0.059,3.708-0.087,4.557-0.2c0.753-0.099,1.187-0.269,1.863-0.586				c1.992-0.902,2.991-2.7,2.991-5.4v-3.775V46.77c0-2.812-0.999-4.726-2.769-5.625C21.473,40.582,20.809,40.582,14.722,40.359z				 M22.802,52.285c0,3.037-0.996,3.713-5.314,3.713V42.944c4.761,0.114,5.314,0.562,5.314,3.826V52.285z"/>			<path fill="#FFFFFF" d="M72.03,52.285V42.27c0-9.565-5.977-15.078-16.051-15.078h-1.654H36.166h-3.982v1.667				c-2.331-1.092-5.145-1.667-8.388-1.667H0v75.051h22.139c4.121,0,7.177-0.546,10.046-1.788v1.788h1.612h15.359h0.225h4.94				c5.312,0,8.854-0.901,12.509-3.037c3.652-2.138,5.2-5.402,5.2-10.354V76.138c0-5.627-1.438-8.328-6.643-12.49				C70.039,61.061,72.03,57.572,72.03,52.285z M32.184,35.203v26.143c-0.989,0.65-2.152,1.295-3.518,1.963				c1.382,1.053,2.54,1.973,3.518,2.812v6.511v14.322v10.704c-2.73,1.508-5.797,2.107-10.046,2.107H2.766V29.668h21.031				c3.425,0,6.243,0.728,8.388,2.125V35.203z M34.949,34.468c1.399,2.014,2.131,4.63,2.131,7.802v10.015				c0,2.856-0.583,4.925-2.131,6.72V34.468z M34.949,86.955V72.633v-3.743c0.971,1.211,1.526,2.378,1.827,3.743				c0.223,1.022,0.304,2.155,0.304,3.506v10.816v1.897c0,2.966-0.751,5.32-2.131,6.812V86.955z M60.849,63.309				c7.087,5.399,8.415,7.313,8.415,12.829v12.714c0,3.602-1.105,6.303-3.099,7.651c-3.209,2.363-6.642,3.263-11.844,3.263h-3.689				h-0.2H35.118h-0.169v-0.752c0.317-0.197,0.618-0.402,0.902-0.617c2.266-1.729,3.483-4.07,3.861-7.228				c0.088-0.729,0.133-1.497,0.133-2.317v-1.897V76.138c0-1.311-0.076-2.46-0.263-3.506c-0.467-2.648-1.619-4.641-3.932-6.863				c-0.224-0.214-0.457-0.431-0.702-0.651v-2.576c3.407-2.463,4.896-5.688,4.896-10.257V42.27c0-5.146-1.73-9.116-4.896-11.688				v-0.914h18.178h2.852c8.525,0,13.284,4.499,13.284,12.603v10.015C69.264,57.572,67.272,60.161,60.849,63.309z"/>			<path fill="#FFFFFF" d="M54.986,41.145c-1.252-0.529-1.915-0.562-7.052-0.749c-0.326-0.012-0.668-0.025-1.03-0.037v2.163v15.949				h1.439c4.647-0.111,4.981-0.111,6.421-0.786c1.989-0.902,2.988-2.7,2.988-5.4V46.77C57.753,43.959,56.754,42.045,54.986,41.145z				 M54.986,52.285c0,3.037-0.998,3.713-5.315,3.713V42.944c4.758,0.114,5.315,0.562,5.315,3.826V52.285z"/>			<path fill="#FFFFFF" d="M50.668,69.273l-3.764,0.114v3.245v5.485v6.364v4.483c1.439,0.112,2.988,0.226,3.875,0.226				c4.87,0,6.974-2.026,6.974-6.865V80.8v-4.662c0-1.383-0.215-2.545-0.635-3.506C56.137,70.383,54.003,69.273,50.668,69.273z				 M54.986,81.738v0.588c0,3.264-0.998,4.388-3.984,4.388h-1.331v-3.171V72.985v-0.353v-0.884h1.108				c1.395,0,2.399,0.275,3.078,0.884c0.777,0.693,1.129,1.825,1.129,3.506V81.738z"/>		</g>	</g>	<path fill="#ED1C24" d="M56.268,88.55"/></g></svg>