<!-- Generator: Adobe Illustrator 17.1.0, SVG Export Plug-In  --><svg version="1.1"	 xmlns="http://www.w3.org/2000/svg" xmlns:xlink="http://www.w3.org/1999/xlink" xmlns:a="http://ns.adobe.com/AdobeSVGViewerExtensions/3.0/"	 x="0px" y="0px" width="123.251px" height="9.096px" viewBox="0 0 123.251 9.096" enable-background="new 0 0 123.251 9.096"	 xml:space="preserve"><defs></defs><g>	<path fill="#FFFFFF" d="M0,8.868v-8.64h3.12c0.504,0,0.936,0.052,1.296,0.155c0.36,0.104,0.654,0.252,0.882,0.444		c0.229,0.192,0.395,0.422,0.498,0.69C5.9,1.786,5.952,2.08,5.952,2.4c0,0.304-0.04,0.565-0.12,0.786		c-0.08,0.22-0.184,0.403-0.312,0.552C5.392,3.887,5.246,4.002,5.082,4.086S4.748,4.229,4.572,4.26v0.024		c0.6,0.088,1.046,0.324,1.338,0.708s0.438,0.864,0.438,1.44c0,0.447-0.069,0.827-0.21,1.14c-0.14,0.312-0.334,0.563-0.582,0.756		S5.01,8.658,4.662,8.742S3.937,8.868,3.528,8.868H0z M0.816,4.044H2.88c0.424,0,0.78-0.036,1.068-0.107		c0.288-0.072,0.52-0.179,0.696-0.318c0.176-0.14,0.302-0.312,0.378-0.516C5.098,2.898,5.136,2.664,5.136,2.4		c0-0.272-0.044-0.502-0.132-0.69c-0.088-0.188-0.228-0.34-0.42-0.456c-0.192-0.115-0.442-0.199-0.75-0.252		C3.526,0.95,3.148,0.924,2.7,0.924H0.816V4.044z M0.816,8.172h2.075c0.448,0,0.839-0.02,1.171-0.06		c0.331-0.04,0.605-0.122,0.821-0.246s0.378-0.3,0.486-0.528C5.479,7.11,5.532,6.809,5.532,6.433c0-0.36-0.061-0.65-0.18-0.87		C5.232,5.342,5.06,5.172,4.836,5.052C4.612,4.933,4.344,4.851,4.032,4.807C3.72,4.763,3.372,4.74,2.988,4.74H0.816V8.172z"/>	<path fill="#FFFFFF" d="M7.104,8.868v-8.64H7.92v7.943h4.632v0.696H7.104z"/>	<path fill="#FFFFFF" d="M12.084,8.868l3.396-8.64h0.924l3.312,8.64h-0.84L17.88,6.156h-3.936l-1.021,2.712H12.084z M14.22,5.46		h3.385l-1.692-4.536L14.22,5.46z"/>	<path fill="#FFFFFF" d="M26.111,2.736C25.943,2,25.632,1.477,25.176,1.164c-0.456-0.312-1.052-0.468-1.788-0.468		c-0.52,0-0.968,0.104-1.344,0.312s-0.687,0.488-0.93,0.841c-0.244,0.352-0.425,0.758-0.54,1.218		c-0.116,0.46-0.175,0.946-0.175,1.458c0,0.479,0.05,0.952,0.15,1.416c0.1,0.464,0.266,0.878,0.498,1.242		c0.231,0.363,0.544,0.657,0.936,0.882C22.376,8.288,22.868,8.4,23.46,8.4c0.368,0,0.704-0.061,1.008-0.181		c0.304-0.119,0.57-0.285,0.798-0.498c0.229-0.211,0.42-0.462,0.576-0.75c0.156-0.287,0.274-0.604,0.354-0.947h0.852		c-0.096,0.416-0.236,0.81-0.42,1.182c-0.185,0.372-0.426,0.698-0.727,0.979c-0.3,0.279-0.664,0.502-1.092,0.666		c-0.428,0.163-0.93,0.245-1.506,0.245c-0.664,0-1.232-0.122-1.704-0.365c-0.472-0.244-0.857-0.574-1.158-0.99		c-0.3-0.416-0.518-0.898-0.653-1.446c-0.137-0.548-0.204-1.13-0.204-1.746c0-0.823,0.102-1.523,0.306-2.1s0.486-1.046,0.846-1.41		c0.36-0.364,0.784-0.628,1.272-0.792S23.027,0,23.604,0c0.44,0,0.851,0.059,1.23,0.174c0.38,0.116,0.716,0.29,1.008,0.522		s0.532,0.518,0.72,0.857c0.188,0.341,0.318,0.734,0.391,1.183H26.111z"/>	<path fill="#FFFFFF" d="M27.791,8.868v-8.64h0.816v4.476l4.428-4.476h0.925l-3.408,3.443l4.008,5.196h-0.996l-3.6-4.692		l-1.356,1.356v3.336H27.791z"/>	<path fill="#FFFFFF" d="M37.283,8.868v-8.64h3.12c0.504,0,0.937,0.052,1.296,0.155c0.36,0.104,0.654,0.252,0.882,0.444		c0.229,0.192,0.395,0.422,0.498,0.69c0.104,0.268,0.156,0.562,0.156,0.882c0,0.304-0.04,0.565-0.12,0.786		c-0.08,0.22-0.184,0.403-0.312,0.552s-0.274,0.264-0.438,0.348s-0.334,0.143-0.51,0.174v0.024c0.6,0.088,1.046,0.324,1.338,0.708		s0.438,0.864,0.438,1.44c0,0.447-0.07,0.827-0.21,1.14c-0.141,0.312-0.335,0.563-0.582,0.756c-0.248,0.192-0.546,0.33-0.895,0.414		c-0.348,0.084-0.726,0.126-1.134,0.126H37.283z M38.1,4.044h2.063c0.425,0,0.78-0.036,1.068-0.107		c0.288-0.072,0.52-0.179,0.696-0.318c0.176-0.14,0.302-0.312,0.378-0.516S42.42,2.664,42.42,2.4c0-0.272-0.045-0.502-0.133-0.69		c-0.088-0.188-0.228-0.34-0.42-0.456c-0.191-0.115-0.441-0.199-0.75-0.252c-0.308-0.052-0.686-0.078-1.134-0.078H38.1V4.044z		 M38.1,8.172h2.076c0.447,0,0.838-0.02,1.17-0.06s0.605-0.122,0.822-0.246c0.216-0.124,0.378-0.3,0.485-0.528		c0.108-0.228,0.162-0.529,0.162-0.905c0-0.36-0.06-0.65-0.18-0.87c-0.12-0.221-0.292-0.391-0.517-0.511		c-0.224-0.119-0.491-0.201-0.804-0.245c-0.312-0.044-0.66-0.066-1.044-0.066H38.1V8.172z"/>	<path fill="#FFFFFF" d="M44.387,8.868v-8.64h5.748v0.695h-4.932v3.12h4.452V4.74h-4.452v3.432h5.052v0.696H44.387z"/>	<path fill="#FFFFFF" d="M50.027,8.868l3.396-8.64h0.924l3.312,8.64h-0.84l-0.996-2.712h-3.936l-1.021,2.712H50.027z M52.164,5.46		h3.384l-1.692-4.536L52.164,5.46z"/>	<path fill="#FFFFFF" d="M58.728,4.944v3.924l-0.816-0.012V0.229h3.384c0.952,0,1.681,0.178,2.185,0.533		c0.504,0.356,0.756,0.935,0.756,1.734c0,0.544-0.11,0.977-0.33,1.296c-0.221,0.32-0.578,0.593-1.074,0.816		c0.256,0.088,0.456,0.216,0.601,0.384c0.144,0.168,0.252,0.36,0.323,0.576c0.072,0.216,0.118,0.443,0.139,0.684		c0.02,0.24,0.033,0.473,0.042,0.696c0.008,0.328,0.021,0.6,0.042,0.816c0.02,0.216,0.044,0.392,0.071,0.527		c0.028,0.137,0.062,0.242,0.103,0.318s0.088,0.134,0.144,0.174v0.072l-0.899,0.012c-0.089-0.144-0.15-0.344-0.187-0.6		s-0.063-0.524-0.084-0.805c-0.02-0.279-0.036-0.552-0.048-0.815C63.065,6.384,63.043,6.168,63.011,6		c-0.048-0.231-0.126-0.418-0.233-0.558c-0.108-0.14-0.238-0.246-0.391-0.318c-0.151-0.072-0.321-0.12-0.51-0.144		c-0.188-0.024-0.382-0.036-0.582-0.036H58.728z M61.271,4.248c0.304,0,0.586-0.032,0.846-0.096c0.26-0.064,0.486-0.166,0.678-0.307		c0.192-0.14,0.344-0.317,0.456-0.533c0.112-0.217,0.168-0.477,0.168-0.78c0-0.32-0.058-0.584-0.174-0.792s-0.272-0.372-0.468-0.492		c-0.196-0.12-0.42-0.204-0.672-0.252s-0.515-0.072-0.786-0.072h-2.592v3.324H61.271z"/>	<path fill="#A7A9AC" d="M67.463,8.868v-8.64h3.12c0.504,0,0.937,0.052,1.296,0.155c0.36,0.104,0.654,0.252,0.882,0.444		c0.229,0.192,0.395,0.422,0.498,0.69c0.104,0.268,0.156,0.562,0.156,0.882c0,0.304-0.04,0.565-0.12,0.786		c-0.08,0.22-0.184,0.403-0.312,0.552s-0.274,0.264-0.438,0.348s-0.334,0.143-0.51,0.174v0.024c0.6,0.088,1.046,0.324,1.338,0.708		s0.438,0.864,0.438,1.44c0,0.447-0.07,0.827-0.21,1.14c-0.141,0.312-0.335,0.563-0.582,0.756c-0.248,0.192-0.546,0.33-0.895,0.414		c-0.348,0.084-0.726,0.126-1.134,0.126H67.463z M68.279,4.044h2.063c0.425,0,0.78-0.036,1.068-0.107		c0.288-0.072,0.52-0.179,0.696-0.318c0.176-0.14,0.302-0.312,0.378-0.516S72.6,2.664,72.6,2.4c0-0.272-0.045-0.502-0.133-0.69		c-0.088-0.188-0.228-0.34-0.42-0.456c-0.191-0.115-0.441-0.199-0.75-0.252c-0.308-0.052-0.686-0.078-1.134-0.078h-1.884V4.044z		 M68.279,8.172h2.076c0.447,0,0.838-0.02,1.17-0.06s0.605-0.122,0.822-0.246c0.216-0.124,0.378-0.3,0.485-0.528		c0.108-0.228,0.162-0.529,0.162-0.905c0-0.36-0.06-0.65-0.18-0.87c-0.12-0.221-0.292-0.391-0.517-0.511		c-0.224-0.119-0.491-0.201-0.804-0.245c-0.312-0.044-0.66-0.066-1.044-0.066h-2.172V8.172z"/>	<path fill="#A7A9AC" d="M75.371,4.944v3.924l-0.816-0.012V0.229h3.384c0.952,0,1.681,0.178,2.185,0.533		c0.504,0.356,0.756,0.935,0.756,1.734c0,0.544-0.11,0.977-0.33,1.296c-0.221,0.32-0.578,0.593-1.074,0.816		c0.256,0.088,0.456,0.216,0.601,0.384c0.144,0.168,0.252,0.36,0.323,0.576c0.072,0.216,0.118,0.443,0.139,0.684		c0.02,0.24,0.033,0.473,0.042,0.696c0.008,0.328,0.021,0.6,0.042,0.816c0.02,0.216,0.044,0.392,0.071,0.527		c0.028,0.137,0.062,0.242,0.103,0.318s0.088,0.134,0.144,0.174v0.072l-0.899,0.012c-0.089-0.144-0.15-0.344-0.187-0.6		s-0.063-0.524-0.084-0.805c-0.02-0.279-0.036-0.552-0.048-0.815C79.709,6.384,79.687,6.168,79.654,6		c-0.048-0.231-0.126-0.418-0.233-0.558c-0.108-0.14-0.238-0.246-0.391-0.318c-0.151-0.072-0.321-0.12-0.51-0.144		c-0.188-0.024-0.382-0.036-0.582-0.036H75.371z M77.915,4.248c0.304,0,0.586-0.032,0.846-0.096c0.26-0.064,0.486-0.166,0.678-0.307		c0.192-0.14,0.344-0.317,0.456-0.533c0.112-0.217,0.168-0.477,0.168-0.78c0-0.32-0.058-0.584-0.174-0.792s-0.272-0.372-0.468-0.492		c-0.196-0.12-0.42-0.204-0.672-0.252s-0.515-0.072-0.786-0.072h-2.592v3.324H77.915z"/>	<path fill="#A7A9AC" d="M81.335,4.561c0-0.632,0.086-1.225,0.258-1.776c0.173-0.552,0.427-1.034,0.763-1.446		s0.752-0.737,1.248-0.978S84.671,0,85.319,0c0.672,0,1.262,0.118,1.77,0.354c0.508,0.235,0.933,0.56,1.272,0.972		s0.596,0.896,0.768,1.452s0.259,1.15,0.259,1.782c0,0.624-0.087,1.21-0.259,1.758s-0.426,1.028-0.762,1.439		c-0.336,0.412-0.756,0.738-1.26,0.979s-1.088,0.359-1.752,0.359s-1.248-0.119-1.752-0.359S82.68,8.17,82.343,7.758		c-0.336-0.411-0.588-0.892-0.756-1.439S81.335,5.185,81.335,4.561z M85.367,8.4c0.56,0,1.042-0.106,1.446-0.318		c0.403-0.212,0.735-0.494,0.996-0.846c0.26-0.353,0.451-0.76,0.575-1.225c0.124-0.464,0.187-0.947,0.187-1.451		c0-0.601-0.074-1.139-0.222-1.614c-0.148-0.476-0.362-0.882-0.643-1.218s-0.62-0.593-1.02-0.769		c-0.4-0.176-0.849-0.264-1.345-0.264c-0.552,0-1.029,0.107-1.434,0.324c-0.404,0.216-0.736,0.502-0.996,0.857		c-0.26,0.356-0.452,0.767-0.576,1.23s-0.186,0.948-0.186,1.452c0,0.512,0.062,1,0.186,1.464s0.316,0.872,0.576,1.224		c0.26,0.353,0.592,0.632,0.996,0.84S84.799,8.4,85.367,8.4z"/>	<path fill="#A7A9AC" d="M89.771,4.561c0-0.632,0.086-1.225,0.258-1.776c0.173-0.552,0.427-1.034,0.763-1.446		s0.752-0.737,1.248-0.978S93.106,0,93.755,0c0.672,0,1.262,0.118,1.77,0.354c0.508,0.235,0.933,0.56,1.272,0.972		s0.596,0.896,0.768,1.452s0.259,1.15,0.259,1.782c0,0.624-0.087,1.21-0.259,1.758s-0.426,1.028-0.762,1.439		c-0.336,0.412-0.756,0.738-1.26,0.979s-1.088,0.359-1.752,0.359s-1.248-0.119-1.752-0.359s-0.924-0.566-1.261-0.979		c-0.336-0.411-0.588-0.892-0.756-1.439S89.771,5.185,89.771,4.561z M93.803,8.4c0.56,0,1.042-0.106,1.446-0.318		c0.403-0.212,0.735-0.494,0.996-0.846c0.26-0.353,0.451-0.76,0.575-1.225c0.124-0.464,0.187-0.947,0.187-1.451		c0-0.601-0.074-1.139-0.222-1.614c-0.148-0.476-0.362-0.882-0.643-1.218s-0.62-0.593-1.02-0.769		c-0.4-0.176-0.849-0.264-1.345-0.264c-0.552,0-1.029,0.107-1.434,0.324c-0.404,0.216-0.736,0.502-0.996,0.857		c-0.26,0.356-0.452,0.767-0.576,1.23s-0.186,0.948-0.186,1.452c0,0.512,0.062,1,0.186,1.464s0.316,0.872,0.576,1.224		c0.26,0.353,0.592,0.632,0.996,0.84S93.234,8.4,93.803,8.4z"/>	<path fill="#A7A9AC" d="M98.591,8.868v-8.64h0.816v4.476l4.428-4.476h0.925l-3.408,3.443l4.008,5.196h-0.996l-3.6-4.692		l-1.356,1.356v3.336H98.591z"/>	<path fill="#A7A9AC" d="M105.646,8.868v-8.64h0.816v7.943h4.632v0.696H105.646z"/>	<path fill="#A7A9AC" d="M112.739,4.393l2.604-4.164h0.948l-3.132,4.872v3.768h-0.816V5.16l-3.084-4.932h0.937L112.739,4.393z"/>	<path fill="#A7A9AC" d="M117.335,1.332h-0.024v7.536h-0.815v-8.64h0.924l4.992,7.548h0.023V0.229h0.816v8.64h-0.948L117.335,1.332z		"/></g></svg>