<!-- Generator: Adobe Illustrator 17.1.0, SVG Export Plug-In  --><svg version="1.1"	 xmlns="http://www.w3.org/2000/svg" xmlns:xlink="http://www.w3.org/1999/xlink" xmlns:a="http://ns.adobe.com/AdobeSVGViewerExtensions/3.0/"	 x="0px" y="0px" width="81.757px" height="21.555px" viewBox="0 0 81.757 21.555" enable-background="new 0 0 81.757 21.555"	 xml:space="preserve"><defs></defs><g>	<path fill="#FFFFFF" d="M0,21.555V0h14.34v1.737H2.037V9.52h11.107v1.737H2.037v8.562H14.64v1.736H0z"/>	<path fill="#FFFFFF" d="M18.082,2.754h-0.061v18.801h-2.034V0h2.305l12.454,18.831h0.058V0h2.037v21.555h-2.366L18.082,2.754z"/>	<path fill="#FFFFFF" d="M33.47,0h15.687v1.737H42.33v19.818h-2.037V1.737H33.47V0z"/>	<path fill="#FFFFFF" d="M49.815,21.555V0h14.34v1.737H51.851V9.52h11.107v1.737H51.851v8.562h12.603v1.736H49.815z"/>	<path fill="#FFFFFF" d="M67.868,11.766v9.789l-2.037-0.03V0h8.442c2.375,0,4.193,0.445,5.45,1.333		c1.257,0.888,1.886,2.33,1.886,4.326c0,1.358-0.275,2.435-0.823,3.233c-0.551,0.799-1.442,1.478-2.68,2.037		c0.638,0.219,1.138,0.538,1.498,0.957c0.358,0.419,0.629,0.898,0.806,1.437c0.18,0.538,0.295,1.107,0.346,1.705		c0.049,0.599,0.083,1.178,0.105,1.737c0.019,0.819,0.054,1.497,0.105,2.036c0.049,0.538,0.11,0.978,0.178,1.317		c0.071,0.34,0.156,0.604,0.256,0.794c0.1,0.19,0.219,0.334,0.358,0.434v0.179l-2.244,0.03c-0.222-0.359-0.375-0.858-0.465-1.497		c-0.09-0.638-0.158-1.307-0.21-2.005c-0.049-0.699-0.09-1.378-0.119-2.037c-0.029-0.658-0.085-1.197-0.166-1.616		c-0.119-0.579-0.314-1.043-0.582-1.391c-0.27-0.35-0.594-0.614-0.975-0.794c-0.378-0.179-0.802-0.298-1.272-0.359		c-0.468-0.06-0.953-0.089-1.452-0.089H67.868z M74.214,10.029c0.758,0,1.462-0.079,2.11-0.239c0.648-0.16,1.213-0.414,1.691-0.764		c0.48-0.35,0.858-0.793,1.138-1.333c0.28-0.538,0.419-1.186,0.419-1.945c0-0.798-0.144-1.457-0.434-1.976s-0.68-0.928-1.167-1.228		c-0.49-0.3-1.048-0.509-1.676-0.629s-1.284-0.179-1.961-0.179h-6.466v8.292H74.214z"/></g></svg>