<!-- Generator: Adobe Illustrator 17.1.0, SVG Export Plug-In  --><svg version="1.1"	 xmlns="http://www.w3.org/2000/svg" xmlns:xlink="http://www.w3.org/1999/xlink" xmlns:a="http://ns.adobe.com/AdobeSVGViewerExtensions/3.0/"	 x="0px" y="0px" width="32.771px" height="8.64px" viewBox="0 0 32.771 8.64" enable-background="new 0 0 32.771 8.64"	 xml:space="preserve"><defs></defs><g>	<path fill="#FFFFFF" d="M0,8.64V0h5.748v0.696H0.816v3.12h4.452v0.696H0.816v3.432h5.052V8.64H0z"/>	<path fill="#FFFFFF" d="M7.248,1.104H7.224V8.64H6.408V0h0.924l4.992,7.548h0.023V0h0.816v8.64h-0.948L7.248,1.104z"/>	<path fill="#FFFFFF" d="M13.416,0h6.288v0.696h-2.736V8.64h-0.816V0.696h-2.735V0z"/>	<path fill="#FFFFFF" d="M19.968,8.64V0h5.748v0.696h-4.932v3.12h4.452v0.696h-4.452v3.432h5.052V8.64H19.968z"/>	<path fill="#FFFFFF" d="M27.204,4.716V8.64l-0.816-0.012V0h3.384c0.952,0,1.681,0.178,2.185,0.534s0.756,0.934,0.756,1.734		c0,0.544-0.11,0.976-0.33,1.296c-0.221,0.32-0.578,0.592-1.074,0.816c0.256,0.088,0.456,0.216,0.601,0.384		c0.144,0.168,0.252,0.36,0.323,0.576c0.072,0.216,0.118,0.444,0.139,0.684c0.02,0.24,0.033,0.472,0.042,0.696		c0.008,0.328,0.021,0.6,0.042,0.816c0.02,0.216,0.044,0.392,0.071,0.528c0.028,0.136,0.062,0.242,0.103,0.318		s0.088,0.134,0.144,0.174v0.072L31.872,8.64c-0.089-0.144-0.15-0.344-0.187-0.6c-0.036-0.256-0.063-0.524-0.084-0.804		c-0.02-0.28-0.036-0.552-0.048-0.816c-0.012-0.264-0.034-0.48-0.066-0.648c-0.048-0.232-0.126-0.418-0.233-0.558		c-0.108-0.14-0.238-0.246-0.391-0.318c-0.151-0.072-0.321-0.12-0.51-0.144c-0.188-0.024-0.382-0.036-0.582-0.036H27.204z		 M29.748,4.02c0.304,0,0.586-0.032,0.846-0.096s0.486-0.166,0.678-0.306c0.192-0.14,0.344-0.318,0.456-0.534		c0.112-0.216,0.168-0.476,0.168-0.78c0-0.32-0.058-0.584-0.174-0.792S31.449,1.14,31.254,1.02c-0.196-0.12-0.42-0.204-0.672-0.252		s-0.515-0.072-0.786-0.072h-2.592V4.02H29.748z"/></g></svg>